<svg width="24" height="24" viewBox="0 0 24 24" fill="none" xmlns="http://www.w3.org/2000/svg">
<path opacity="0.3" fill-rule="evenodd" clip-rule="evenodd" d="M20.4061 6.73598C20.7673 6.89648 21 7.2546 21 7.64979V16.4115C21 16.7747 20.8031 17.1093 20.4856 17.2857L12.4856 21.7301C12.1836 21.8979 11.8164 21.8979 11.5144 21.7301L3.51436 17.2857C3.19689 17.1093 3 16.7747 3 16.4115L3 7.64979C3 7.2546 3.23273 6.89648 3.59386 6.73598L11.5939 3.18043C11.8524 3.06551 12.1476 3.06551 12.4061 3.18043L20.4061 6.73598Z" fill="#377DFF"/>
<path fill-rule="evenodd" clip-rule="evenodd" d="M14.9672 4.22461L7.6001 8.31747V12.9059L9.6001 13.9059V9.49428L17.2552 5.24146L14.9672 4.22461Z" fill="#377DFF"/>
</svg>
