<svg width="24" height="24" viewBox="0 0 24 24" fill="none" xmlns="http://www.w3.org/2000/svg">
<path opacity="0.3" fill-rule="evenodd" clip-rule="evenodd" d="M16.9931 6.41036L17.6063 3.78241C17.7309 3.24839 18.2069 2.87061 18.7553 2.87061H20.8202C21.4718 2.87061 22.0001 3.39887 22.0001 4.05052C22.0001 4.70217 21.4718 5.23044 20.8202 5.23044H19.6916L18.1447 11.8438L17.4472 16.0286C17.3555 16.5791 16.831 16.9479 16.282 16.8481L4.91312 14.781C4.53851 14.7129 4.23508 14.438 4.13048 14.0719L2.30569 7.68508C2.12317 7.04626 2.60283 6.41036 3.26721 6.41036H16.9931Z" fill="#377DFF"/>
<path fill-rule="evenodd" clip-rule="evenodd" d="M6.5 21C7.32843 21 8 20.3284 8 19.5C8 18.6716 7.32843 18 6.5 18C5.67157 18 5 18.6716 5 19.5C5 20.3284 5.67157 21 6.5 21ZM15.5 21C16.3284 21 17 20.3284 17 19.5C17 18.6716 16.3284 18 15.5 18C14.6716 18 14 18.6716 14 19.5C14 20.3284 14.6716 21 15.5 21Z" fill="#377DFF"/>
</svg>
