<svg width="24" height="24" viewBox="0 0 24 24" fill="none" xmlns="http://www.w3.org/2000/svg">
<path opacity="0.3" fill-rule="evenodd" clip-rule="evenodd" d="M12.4089 3.63037C14.8996 2.07063 18.2236 2.37399 20.3901 4.54046C22.5571 6.70753 22.5571 10.221 20.3901 12.3881L9.82683 22.9514C9.62681 23.1514 9.3025 23.1514 9.10248 22.9514L1.29199 15.1409C1.11933 14.9682 1.11933 14.6883 1.29199 14.5156L10.8789 4.92875L13.0002 7.05007C13.0402 7.09004 13.0827 7.12591 13.1272 7.1577C12.5867 8.27513 12.78 9.65835 13.7073 10.5856C14.8789 11.7572 16.7784 11.7572 17.9499 10.5856C19.1215 9.41403 19.1215 7.51454 17.9499 6.34296C17.0227 5.41571 15.6395 5.22234 14.522 5.76285C14.4902 5.71833 14.4544 5.67582 14.4144 5.63586L12.4089 3.63037Z" fill="#377DFF"/>
<rect opacity="0.3" x="8.05029" y="10.5854" width="8" height="2" rx="1" transform="rotate(45 8.05029 10.5854)" fill="#377DFF"/>
<rect opacity="0.3" x="5.9292" y="14.1211" width="6" height="2" rx="1" transform="rotate(45 5.9292 14.1211)" fill="#377DFF"/>
</svg>
