<svg width="24" height="24" viewBox="0 0 24 24" fill="none" xmlns="http://www.w3.org/2000/svg">
<path opacity="0.3" fill-rule="evenodd" clip-rule="evenodd" d="M5 4C4.44772 4 4 4.44772 4 5C4 5.55228 4.44772 6 5 6H7V17C7 17.5523 7.44772 18 8 18C8 18.5523 8.44771 19 9 19H18C18.5523 19 19 18.5523 19 18C19 17.4477 18.5523 17 18 17H9V5C9 4.44772 8.55228 4 8 4H5Z" fill="#377DFF"/>
<rect opacity="0.3" x="11" y="7" width="8" height="8" rx="1.5" fill="#377DFF"/>
<circle cx="8" cy="18" r="3" fill="#377DFF"/>
</svg>
