<svg width="24" height="24" viewBox="0 0 24 24" fill="none" xmlns="http://www.w3.org/2000/svg">
<path fill-rule="evenodd" clip-rule="evenodd" d="M7.8248 10.2248C7.1998 9.4748 6.8498 8.3998 6.8498 7.3748C6.8498 4.5498 9.1498 2.0498 12.3498 2.0498C15.27 2.0498 17.5246 4.17944 17.8391 6.91325C17.8712 7.19248 17.6431 7.4248 17.362 7.4248H15.5748C15.2987 7.4248 15.0792 7.1994 15.037 6.9265C14.8308 5.59412 13.7991 4.5998 12.3498 4.5998C10.7498 4.5998 9.5998 5.7748 9.5998 7.3748C9.5998 8.26607 10.0161 9.06127 10.6675 9.58373C10.7356 9.63834 10.6998 17.4248 10.6998 17.4248H17.5442C17.8958 17.4248 18.1376 17.7781 18.0103 18.1058L17.3987 19.6808C17.324 19.8731 17.1389 19.9998 16.9326 19.9998H6.2998C6.02366 19.9998 5.7998 19.7759 5.7998 19.4998V17.9248C5.7998 17.6487 6.02366 17.4248 6.2998 17.4248H7.9248V12.4748L7.8248 10.2248Z" fill="#377DFF"/>
<path opacity="0.3" fill-rule="evenodd" clip-rule="evenodd" d="M4.80902 12C4.43733 12 4.19558 11.6088 4.3618 11.2764L4.8618 10.2764C4.9465 10.107 5.11963 10 5.30902 10H15.191C15.5627 10 15.8044 10.3912 15.6382 10.7236L15.1382 11.7236C15.0535 11.893 14.8804 12 14.691 12H4.80902Z" fill="#377DFF"/>
</svg>
