<svg width="24" height="24" viewBox="0 0 24 24" fill="none" xmlns="http://www.w3.org/2000/svg">
<path opacity="0.3" fill-rule="evenodd" clip-rule="evenodd" d="M6.5 16C5.67157 16 5 16.6716 5 17.5V19.5C5 20.3284 5.67157 21 6.5 21H7.5C8.32843 21 9 20.3284 9 19.5V17.5C9 16.6716 8.32843 16 7.5 16H6.5ZM16.5 16C15.6716 16 15 16.6716 15 17.5V19.5C15 20.3284 15.6716 21 16.5 21H17.5C18.3284 21 19 20.3284 19 19.5V17.5C19 16.6716 18.3284 16 17.5 16H16.5Z" fill="#377DFF"/>
<path fill-rule="evenodd" clip-rule="evenodd" d="M5 4C3.89543 4 3 4.89543 3 6V17C3 18.1046 3.89543 19 5 19H19C20.1046 19 21 18.1046 21 17V6C21 4.89543 20.1046 4 19 4H5ZM15.5 15C17.433 15 19 13.433 19 11.5C19 9.567 17.433 8 15.5 8C13.567 8 12 9.567 12 11.5C12 13.433 13.567 15 15.5 15ZM17 11.5C17 12.3284 16.3284 13 15.5 13C14.6716 13 14 12.3284 14 11.5C14 10.6716 14.6716 10 15.5 10C16.3284 10 17 10.6716 17 11.5ZM7 8C6.44772 8 6 8.44772 6 9V11C6 11.5523 6.44772 12 7 12C7.55228 12 8 11.5523 8 11V9C8 8.44772 7.55228 8 7 8Z" fill="#377DFF"/>
</svg>
