<svg width="24" height="24" viewBox="0 0 24 24" fill="none" xmlns="http://www.w3.org/2000/svg">
<path opacity="0.3" fill-rule="evenodd" clip-rule="evenodd" d="M11.9999 20.0218L8.47334 21.7285L6.86894 18.1542L3.07037 17.1949L4.13882 13.4255L1.84561 10.249L5.08698 8.04826L5.37215 4.14081L9.26976 4.53849L11.9999 1.72852L14.73 4.53849L18.6276 4.14081L18.9128 8.04826L22.1541 10.249L19.8609 13.4255L20.9294 17.1949L17.1308 18.1542L15.5264 21.7285L11.9999 20.0218Z" fill="#377DFF"/>
<path fill-rule="evenodd" clip-rule="evenodd" d="M14.0891 8.60254L8.36084 14.7014L9.70873 16.0493L15.437 9.95043L14.0891 8.60254Z" fill="#377DFF"/>
<path opacity="0.3" fill-rule="evenodd" clip-rule="evenodd" d="M10.8545 9.17552C10.8545 10.1254 10.0856 10.894 9.13597 10.894C8.18805 10.894 7.41748 10.1254 7.41748 9.17552C7.41748 8.22564 8.18805 7.45703 9.13597 7.45703C10.0856 7.45703 10.8545 8.22564 10.8545 9.17552Z" fill="#377DFF"/>
<path opacity="0.3" fill-rule="evenodd" clip-rule="evenodd" d="M14.864 16.622C13.9161 16.622 13.1455 15.8534 13.1455 14.9035C13.1455 13.9519 13.9161 13.1851 14.864 13.1851C15.8137 13.1851 16.5825 13.9519 16.5825 14.9035C16.5825 15.8534 15.8137 16.622 14.864 16.622Z" fill="#377DFF"/>
</svg>
