<svg width="24" height="24" viewBox="0 0 24 24" fill="none" xmlns="http://www.w3.org/2000/svg">
<path opacity="0.3" fill-rule="evenodd" clip-rule="evenodd" d="M6.1362 11.086L2.60066 14.6215C2.21014 15.012 2.21014 15.6452 2.60066 16.0357L4.05024 17.4853C5.02092 16.8422 6.34162 16.9483 7.19686 17.8035C8.05209 18.6587 8.15815 19.9794 7.51505 20.9501L8.96462 22.3997C9.35515 22.7902 9.98831 22.7902 10.3788 22.3997L13.9144 18.8641L12.5002 17.4499C12.1096 17.0594 12.1096 16.4262 12.5002 16.0357C12.8907 15.6452 13.5238 15.6452 13.9144 16.0357L15.3286 17.4499L22.3997 10.3789C22.7902 9.98834 22.7902 9.35518 22.3997 8.96465L20.9501 7.51508C19.9794 8.15818 18.6587 8.05212 17.8035 7.19689C16.9482 6.34165 16.8422 5.02095 17.4853 4.05027L16.0357 2.60069C15.6452 2.21017 15.012 2.21017 14.6215 2.60069L7.55041 9.67176L8.96462 11.086C9.35515 11.4765 9.35515 12.1097 8.96462 12.5002C8.5741 12.8907 7.94093 12.8907 7.55041 12.5002L6.1362 11.086ZM9.67173 14.6215C9.2812 14.231 9.2812 13.5978 9.67173 13.2073C10.0623 12.8168 10.6954 12.8168 11.0859 13.2073L11.793 13.9144C12.1836 14.3049 12.1836 14.9381 11.793 15.3286C11.4025 15.7191 10.7694 15.7191 10.3788 15.3286L9.67173 14.6215Z" fill="#377DFF"/>
</svg>
