<svg width="24" height="25" viewBox="0 0 24 25" fill="none" xmlns="http://www.w3.org/2000/svg">
<path fill-rule="evenodd" clip-rule="evenodd" d="M15.1367 20.8618L16.1 22.5302C16.3762 23.0085 16.9878 23.1724 17.466 22.8963C17.9443 22.6201 18.1082 22.0085 17.8321 21.5302L16.8635 19.8525C16.8567 19.8578 16.8498 19.863 16.843 19.8682C16.3654 20.232 15.8456 20.5432 15.2923 20.7934C15.2407 20.8167 15.1889 20.8395 15.1367 20.8618ZM7.14322 19.8576C7.67124 20.2616 8.25106 20.6013 8.871 20.865L7.89207 22.5606C7.61593 23.0389 7.00434 23.2027 6.52605 22.9266C6.04775 22.6505 5.88388 22.0389 6.16002 21.5606L7.14322 19.8576Z" fill="#377DFF"/>
<path opacity="0.3" fill-rule="evenodd" clip-rule="evenodd" d="M5.29845 3.38221C5.88424 2.79642 6.83399 2.79642 7.41977 3.38221C8.00556 3.968 8.00556 4.91774 7.41977 5.50353L5.29845 7.62485C4.71267 8.21064 3.76292 8.21064 3.17713 7.62485C2.59135 7.03906 2.59135 6.08932 3.17713 5.50353L5.29845 3.38221ZM16.9473 3.75421C17.5331 3.16842 18.4829 3.16842 19.0686 3.75421L20.818 5.50353C21.4037 6.08932 21.4037 7.03907 20.818 7.62485C20.2322 8.21064 19.2824 8.21064 18.6966 7.62485L16.9473 5.87553C16.3615 5.28974 16.3615 4.34 16.9473 3.75421ZM11.9998 21.5001C7.58155 21.5001 3.99982 17.9184 3.99982 13.5001C3.99982 9.08185 7.58155 5.50013 11.9998 5.50013C16.4181 5.50013 19.9998 9.08185 19.9998 13.5001C19.9998 17.9184 16.4181 21.5001 11.9998 21.5001Z" fill="#377DFF"/>
<path fill-rule="evenodd" clip-rule="evenodd" d="M11.4646 8.46165C11.4846 8.20115 11.7018 8 11.9631 8H12.0476C12.3044 8 12.5195 8.19465 12.5451 8.45025L13.0001 13L16.2481 14.856C16.4039 14.9451 16.5001 15.1107 16.5001 15.2902V15.3454C16.5001 15.6751 16.1866 15.9145 15.8685 15.8278L11.3987 14.6087C11.1673 14.5456 11.0134 14.3271 11.0318 14.088L11.4646 8.46165Z" fill="#377DFF"/>
</svg>
