<svg width="24" height="24" viewBox="0 0 24 24" fill="none" xmlns="http://www.w3.org/2000/svg">
<path opacity="0.3" fill-rule="evenodd" clip-rule="evenodd" d="M6.57295 5.35411C7.60075 3.29849 9.70175 2 12 2C14.2982 2 16.3992 3.29849 17.427 5.3541L20.6847 11.8695C23.0119 16.5238 19.6274 22 14.4238 22H9.57623C4.37256 22 0.988091 16.5238 3.31524 11.8695L6.57295 5.35411Z" fill="#377DFF"/>
<path opacity="0.3" fill-rule="evenodd" clip-rule="evenodd" d="M6.4375 16.5L7.5625 15C9.07542 16.1347 10.5496 16.6875 12 16.6875C13.4504 16.6875 14.9246 16.1347 16.4375 15L17.5625 16.5C15.7421 17.8653 13.8829 18.5625 12 18.5625C10.1171 18.5625 8.25792 17.8653 6.4375 16.5Z" fill="#377DFF"/>
</svg>
