<svg width="24" height="24" viewBox="0 0 24 24" fill="none" xmlns="http://www.w3.org/2000/svg">
<path opacity="0.3" fill-rule="evenodd" clip-rule="evenodd" d="M10.5279 22.5281L8.79769 20.7979L9.9955 18.4466L7.35589 19.3561L5.04899 17.0492L8.15443 11.6369L2.7421 14.7423L1.30029 13.3005L9.26553 8.0315C11.3412 6.65843 14.1286 7.15123 15.6077 9.15277C17.1661 11.2617 17.122 14.1522 15.4999 16.2126L10.5279 22.5281Z" fill="#377DFF"/>
<path fill-rule="evenodd" clip-rule="evenodd" d="M17.8639 9.46484L21.839 5.48974C22.6201 4.7087 22.6201 3.44237 21.839 2.66132C21.058 1.88027 19.7916 1.88027 19.0106 2.66132L14.8258 6.8461C15.8854 7.3089 16.8402 8.04705 17.5739 9.04004C17.6765 9.17886 17.7732 9.32057 17.8639 9.46484Z" fill="#377DFF"/>
</svg>
