<svg width="24" height="24" viewBox="0 0 24 24" fill="none" xmlns="http://www.w3.org/2000/svg">
<circle opacity="0.3" cx="12" cy="9" r="8" fill="#377DFF"/>
<path opacity="0.3" fill-rule="evenodd" clip-rule="evenodd" d="M6.53809 9L10.5679 19.3624L11.9759 18.8149L13.3744 19.3674L17.4702 9H6.53809ZM9.46178 11H14.5297L11.9758 17.4645L9.46178 11Z" fill="#377DFF"/>
<path opacity="0.3" d="M10 22H14C14 23.1046 13.1046 24 12 24C10.8954 24 10 23.1046 10 22Z" fill="#377DFF"/>
<path fill-rule="evenodd" clip-rule="evenodd" d="M8 17C8 16.4477 8.44772 16 9 16H15C15.5523 16 16 16.4477 16 17C16 17.5523 15.5523 18 15 18C15.5523 18 16 18.4477 16 19C16 19.5523 15.5523 20 15 20C15.5523 20 16 20.4477 16 21C16 21.5523 15.5523 22 15 22H9C8.44772 22 8 21.5523 8 21C8 20.4477 8.44772 20 9 20C8.44772 20 8 19.5523 8 19C8 18.4477 8.44772 18 9 18C8.44772 18 8 17.5523 8 17Z" fill="#377DFF"/>
</svg>
