<svg width="24" height="24" viewBox="0 0 24 24" fill="none" xmlns="http://www.w3.org/2000/svg">
<path opacity="0.3" fill-rule="evenodd" clip-rule="evenodd" d="M3.93887 4.72125C3.41735 3.76515 3.76977 2.58808 4.79427 2.2186C6.34991 1.65756 8.8459 1 11.9997 1C15.1536 1 17.6498 1.65758 19.2056 2.21862C20.2301 2.5881 20.5826 3.76522 20.0611 4.72137L15 14H9L3.93887 4.72125Z" fill="#377DFF"/>
<path opacity="0.3" d="M10 20H14C14 21.1046 13.1046 22 12 22C10.8954 22 10 21.1046 10 20Z" fill="#377DFF"/>
<path opacity="0.3" fill-rule="evenodd" clip-rule="evenodd" d="M10.5 9C10.2239 9 10 9.22386 10 9.5C10 9.77614 10.2239 10 10.5 10L11 10V18C11 18.5523 11.4477 19 12 19C12.5523 19 13 18.5523 13 18V10H13.5C13.7761 10 14 9.77614 14 9.5C14 9.22386 13.7761 9 13.5 9H12H10.5Z" fill="#377DFF"/>
<path fill-rule="evenodd" clip-rule="evenodd" d="M8 15C8 14.4477 8.44772 14 9 14H15C15.5523 14 16 14.4477 16 15C16 15.5523 15.5523 16 15 16C15.5523 16 16 16.4477 16 17C16 17.5523 15.5523 18 15 18C15.5523 18 16 18.4477 16 19C16 19.5523 15.5523 20 15 20H9C8.44772 20 8 19.5523 8 19C8 18.4477 8.44772 18 9 18C8.44772 18 8 17.5523 8 17C8 16.4477 8.44772 16 9 16C8.44772 16 8 15.5523 8 15Z" fill="#377DFF"/>
</svg>
