<svg width="24" height="24" viewBox="0 0 24 24" fill="none" xmlns="http://www.w3.org/2000/svg">
<path fill-rule="evenodd" clip-rule="evenodd" d="M12 2C10.1614 2 8.48062 3.03879 7.65838 4.68328L5.91937 8.1613C3.65924 12.6815 6.94623 18 12 18C17.0538 18 20.3408 12.6816 18.0807 8.1613L16.3417 4.68328C15.5194 3.03879 13.8386 2 12 2ZM8.45002 12.4L7.55002 13.6C9.00635 14.6923 10.4937 15.25 12 15.25C13.5064 15.25 14.9937 14.6923 16.45 13.6L15.55 12.4C14.3397 13.3077 13.1603 13.75 12 13.75C10.8397 13.75 9.66035 13.3077 8.45002 12.4Z" fill="#377DFF"/>
<path opacity="0.3" fill-rule="evenodd" clip-rule="evenodd" d="M17.8321 21.0302C18.1082 21.5085 17.9443 22.1201 17.466 22.3962C16.9878 22.6724 16.3762 22.5085 16.1 22.0302L14.1 18.5661C13.8239 18.0878 13.9878 17.4762 14.466 17.2001C14.9443 16.9239 15.5559 17.0878 15.8321 17.5661L17.8321 21.0302ZM6.16002 21.0605C5.88388 21.5388 6.04775 22.1504 6.52605 22.4266C7.00434 22.7027 7.61593 22.5388 7.89207 22.0605L9.89207 18.5964C10.1682 18.1181 10.0043 17.5066 9.52605 17.2304C9.04775 16.9543 8.43616 17.1181 8.16002 17.5964L6.16002 21.0605Z" fill="#377DFF"/>
</svg>
