<svg width="24" height="24" viewBox="0 0 24 24" fill="none" xmlns="http://www.w3.org/2000/svg">
<path opacity="0.3" fill-rule="evenodd" clip-rule="evenodd" d="M6.54262 21.5012C6.39968 22.0347 6.71626 22.583 7.24973 22.726C7.7832 22.8689 8.33153 22.5523 8.47447 22.0189L10.0726 16.0545C10.2156 15.521 9.89899 14.9727 9.36553 14.8297C8.83206 14.6868 8.28372 15.0034 8.14078 15.5368L6.54262 21.5012ZM17.4498 21.4709C17.5927 22.0044 17.2761 22.5527 16.7426 22.6956C16.2092 22.8386 15.6608 22.522 15.5179 21.9885L14.215 17.1261C14.0721 16.5926 14.3887 16.0443 14.9221 15.9013C15.4556 15.7584 16.0039 16.075 16.1469 16.6084L17.4498 21.4709Z" fill="#377DFF"/>
<path fill-rule="evenodd" clip-rule="evenodd" d="M7.36092 1C6.12504 1 5.18496 2.10973 5.38813 3.3288L6.93037 12.5822C6.97055 12.8233 7.17914 13 7.42356 13H16.5764C16.8209 13 17.0295 12.8233 17.0696 12.5822L18.6119 3.3288C18.815 2.10973 17.875 1 16.6391 1H7.36092ZM5.5 14C4.67157 14 4 14.6716 4 15.5C4 16.3284 4.67157 17 5.5 17H18.5C19.3284 17 20 16.3284 20 15.5C20 14.6716 19.3284 14 18.5 14H5.5Z" fill="#377DFF"/>
</svg>
