<svg width="24" height="25" viewBox="0 0 24 25" fill="none" xmlns="http://www.w3.org/2000/svg">
<path opacity="0.3" fill-rule="evenodd" clip-rule="evenodd" d="M12 22.5C7.02944 22.5 3 18.4706 3 13.5C3 8.52944 7.02944 4.5 12 4.5C16.9706 4.5 21 8.52944 21 13.5C21 18.4706 16.9706 22.5 12 22.5Z" fill="#377DFF"/>
<path fill-rule="evenodd" clip-rule="evenodd" d="M11.4646 8.46165C11.4846 8.20115 11.7018 8 11.9631 8H12.0476C12.3044 8 12.5195 8.19465 12.5451 8.45025L13.0001 13L16.2481 14.856C16.4039 14.9451 16.5001 15.1107 16.5001 15.2902V15.3454C16.5001 15.6751 16.1866 15.9145 15.8685 15.8278L11.3987 14.6087C11.1673 14.5456 11.0134 14.3271 11.0318 14.088L11.4646 8.46165Z" fill="#377DFF"/>
</svg>
