<svg width="24" height="25" viewBox="0 0 24 25" fill="none" xmlns="http://www.w3.org/2000/svg">
<path opacity="0.3" d="M7 4.99671V21.4375H5V3.0625H11V4.99671H7Z" fill="#377DFF"/>
<path fill-rule="evenodd" clip-rule="evenodd" d="M10.1819 2.29481C9.56717 2.1811 9 2.65298 9 3.27813V21.2217C9 21.8468 9.56717 22.3187 10.1819 22.205L18.1819 20.7252C18.656 20.6375 19 20.224 19 19.7419V4.75794C19 4.27581 18.656 3.86232 18.1819 3.77462L10.1819 2.29481ZM11.9167 13.1748C12.607 13.1748 13.1667 12.5537 13.1667 11.7875C13.1667 11.0213 12.607 10.4001 11.9167 10.4001C11.2263 10.4001 10.6667 11.0213 10.6667 11.7875C10.6667 12.5537 11.2263 13.1748 11.9167 13.1748Z" fill="#377DFF"/>
</svg>
