<svg width="24" height="24" viewBox="0 0 24 24" fill="none" xmlns="http://www.w3.org/2000/svg">
<path opacity="0.3" fill-rule="evenodd" clip-rule="evenodd" d="M3.00002 10.1216C3.00002 9.42487 3.36261 8.77835 3.95712 8.41503L11.4786 3.81859C11.7987 3.62297 12.2014 3.62297 12.5215 3.81859L20.0429 8.41504C20.6374 8.77835 21 9.42487 21 10.1216V18.9999C21 20.1045 20.1046 20.9999 19 20.9999H5.00002C3.89545 20.9999 3.00002 20.1045 3.00002 18.9999V10.1216Z" fill="#377DFF"/>
<path opacity="0.3" fill-rule="evenodd" clip-rule="evenodd" d="M13.7999 12C13.1561 12 12.4032 12.7299 11.9999 13.2C11.5966 12.7299 10.8437 12 10.1999 12C9.0603 12 8.3999 12.8889 8.3999 14.0202C8.3999 15.9 11.9999 18 11.9999 18C11.9999 18 15.5999 15.9 15.5999 14.1C15.5999 12.9687 14.9395 12 13.7999 12Z" fill="#377DFF"/>
</svg>
