<svg width="24" height="24" viewBox="0 0 24 24" fill="none" xmlns="http://www.w3.org/2000/svg">
<path fill-rule="evenodd" clip-rule="evenodd" d="M3.95712 8.41503C3.36261 8.77835 3.00002 9.42487 3.00002 10.1216V18.9999C3.00002 20.1045 3.89545 20.9999 5.00002 20.9999H19C20.1046 20.9999 21 20.1045 21 18.9999V10.1216C21 9.42487 20.6374 8.77835 20.0429 8.41504L12.5215 3.81859C12.2014 3.62297 11.7987 3.62297 11.4786 3.81859L3.95712 8.41503ZM10 12.9999C9.44773 12.9999 9.00002 13.4476 9.00002 13.9999V16.9999C9.00002 17.5522 9.44773 17.9999 10 17.9999H14C14.5523 17.9999 15 17.5522 15 16.9999V13.9999C15 13.4476 14.5523 12.9999 14 12.9999H10Z" fill="#377DFF"/>
</svg>
