<svg width="24" height="25" viewBox="0 0 24 25" fill="none" xmlns="http://www.w3.org/2000/svg">
<path opacity="0.3" fill-rule="evenodd" clip-rule="evenodd" d="M11.3658 11.3228L4.9998 17.5002L4.9998 20.5002L7.9998 20.5002L7.9998 18.5002L9.94158 18.5002V16.5002L11.9998 16.5002L14.1842 14.1412L11.3658 11.3228Z" fill="#0015FF"/>
<path fill-rule="evenodd" clip-rule="evenodd" d="M11.7427 13.7279C14.0859 16.0711 17.8848 16.0711 20.228 13.7279C22.5711 11.3848 22.5711 7.58579 20.228 5.24264C17.8848 2.89949 14.0859 2.89949 11.7427 5.24264C9.39957 7.58579 9.39957 11.3848 11.7427 13.7279ZM16.0607 9.68198C16.6465 10.2678 17.5963 10.2678 18.1821 9.68198C18.7678 9.09619 18.7678 8.14645 18.1821 7.56066C17.5963 6.97487 16.6465 6.97487 16.0607 7.56066C15.4749 8.14645 15.4749 9.09619 16.0607 9.68198Z" fill="#3D50DF"/>
</svg>
