<svg width="24" height="25" viewBox="0 0 24 25" fill="none" xmlns="http://www.w3.org/2000/svg">
<path fill-rule="evenodd" clip-rule="evenodd" d="M3.94566 8.60545C3.39752 8.67301 3.00793 9.17212 3.07548 9.72026C3.58679 13.8691 6.89838 17.0924 10.9999 17.5481V18.4999H9.99993C8.89536 18.4999 7.99993 19.3953 7.99993 20.4999H11.9999H15.9999C15.9999 19.3953 15.1045 18.4999 13.9999 18.4999H12.9999V17.5483C17.1471 17.0885 20.4824 13.7999 20.9407 9.59425C21.0005 9.04522 20.6039 8.55164 20.0549 8.49181C19.5058 8.43198 19.0122 8.82856 18.9524 9.3776C18.5681 12.9042 15.5776 15.6034 12.0008 15.6034C8.46043 15.6034 5.4896 12.9577 5.06047 9.47563C4.99291 8.92749 4.4938 8.5379 3.94566 8.60545Z" fill="#377DFF"/>
<path opacity="0.3" fill-rule="evenodd" clip-rule="evenodd" d="M12 14.5C15.3137 14.5 18 11.8137 18 8.5C18 5.18629 15.3137 2.5 12 2.5C8.68629 2.5 6 5.18629 6 8.5C6 11.8137 8.68629 14.5 12 14.5ZM8.11553 7.6919C8.47708 7.66662 8.79068 7.93922 8.81596 8.30077C8.90328 9.5495 9.45599 10.4854 10.5074 11.1648C10.8118 11.3615 10.8991 11.7677 10.7024 12.0721C10.5057 12.3765 10.0994 12.4638 9.79502 12.2671C8.39667 11.3635 7.62279 10.0532 7.50665 8.39233C7.48137 8.03077 7.75397 7.71718 8.11553 7.6919Z" fill="#377DFF"/>
</svg>
