<svg width="24" height="25" viewBox="0 0 24 25" fill="none" xmlns="http://www.w3.org/2000/svg">
<path opacity="0.3" fill-rule="evenodd" clip-rule="evenodd" d="M12 21.5C7.58172 21.5 4 17.9183 4 13.5C4 9.08172 7.58172 5.5 12 5.5C16.4183 5.5 20 9.08172 20 13.5C20 17.9183 16.4183 21.5 12 21.5Z" fill="#377DFF"/>
<path fill-rule="evenodd" clip-rule="evenodd" d="M13 5.56189V4.5H14C14.5523 4.5 15 4.05228 15 3.5C15 2.94772 14.5523 2.5 14 2.5H10C9.44772 2.5 9 2.94772 9 3.5C9 4.05228 9.44772 4.5 10 4.5H11V5.56189C11.3276 5.52104 11.6613 5.5 12 5.5C12.3387 5.5 12.6724 5.52104 13 5.56189Z" fill="#377DFF"/>
<path fill-rule="evenodd" clip-rule="evenodd" d="M18.1672 8.40378L18.9498 7.62117C19.3403 7.23065 19.3403 6.59748 18.9498 6.20696C18.5593 5.81643 17.9261 5.81643 17.5356 6.20696L16.71 7.03258C17.2511 7.42735 17.7408 7.8884 18.1672 8.40378Z" fill="#377DFF"/>
<path fill-rule="evenodd" clip-rule="evenodd" d="M11.4646 8.46165C11.4846 8.20115 11.7018 8 11.9631 8H12.0371C12.2984 8 12.5156 8.20115 12.5356 8.46165L12.9587 13.9617C12.981 14.252 12.7514 14.5 12.4602 14.5H11.54C11.2488 14.5 11.0192 14.252 11.0415 13.9617L11.4646 8.46165Z" fill="#377DFF"/>
</svg>
