<svg width="24" height="24" viewBox="0 0 24 24" fill="none" xmlns="http://www.w3.org/2000/svg">
<rect opacity="0.3" x="6" y="1" width="12" height="4" rx="1" fill="#377DFF"/>
<path fill-rule="evenodd" clip-rule="evenodd" d="M15.2344 6C16.2431 6 17.0939 6.75107 17.219 7.75193L17.8608 12.8865C17.952 13.4062 18 13.9461 18 14.5C18 18.6421 15.3137 22 12 22C8.68629 22 6 18.6421 6 14.5C6 13.9461 6.04804 13.4062 6.13918 12.8865L6.78101 7.75193C6.90612 6.75107 7.75692 6 8.76556 6H15.2344ZM12 20C14.2091 20 16 17.7614 16 15C16 12.2386 14.2091 10 12 10C9.79086 10 8 12.2386 8 15C8 17.7614 9.79086 20 12 20Z" fill="#377DFF"/>
<path opacity="0.3" d="M10.5 14.5C10.5 14.2239 10.7239 14 11 14H13C13.2761 14 13.5 14.2239 13.5 14.5V15.5C13.5 16.3284 12.8284 17 12 17C11.1716 17 10.5 16.3284 10.5 15.5V14.5Z" fill="#377DFF"/>
</svg>
