<svg width="24" height="24" viewBox="0 0 24 24" fill="none" xmlns="http://www.w3.org/2000/svg">
<path opacity="0.3" d="M4 22C4 19.7909 5.79086 18 8 18C10.2091 18 12 19.7909 12 22H4Z" fill="#377DFF"/>
<path fill-rule="evenodd" clip-rule="evenodd" d="M9 12.126C10.7252 12.5701 12 14.1362 12 16C12 18.2091 10.2091 20 8 20C5.79086 20 4 18.2091 4 16C4 14.1362 5.27477 12.5701 7 12.126V8C7 4.68629 9.68629 2 13 2C16.3137 2 19 4.68629 19 8V9H17V8C17 5.79086 15.2091 4 13 4C10.7909 4 9 5.79086 9 8V12.126ZM10 16C10 17.1046 9.10457 18 8 18C6.89543 18 6 17.1046 6 16C6 14.8954 6.89543 14 8 14C9.10457 14 10 14.8954 10 16Z" fill="#377DFF"/>
<ellipse opacity="0.3" cx="18" cy="14.5" rx="2" ry="2.5" fill="#377DFF"/>
</svg>
