<svg width="24" height="24" viewBox="0 0 24 24" fill="none" xmlns="http://www.w3.org/2000/svg">
<path opacity="0.3" fill-rule="evenodd" clip-rule="evenodd" d="M4.22183 14.1214C3.44078 14.9025 3.44078 16.1688 4.22183 16.9499L7.05026 19.7783C7.83131 20.5593 9.09764 20.5593 9.87868 19.7783L12.7071 16.9499C13.4882 16.1688 13.4882 14.9025 12.7071 14.1214L12 13.4143L9.87868 15.5356C9.48816 15.9262 8.855 15.9262 8.46447 15.5356C8.07395 15.1451 8.07395 14.512 8.46447 14.1214L10.5858 12.0001L9.87868 11.293C9.09764 10.512 7.83131 10.512 7.05026 11.293L4.22183 14.1214Z" fill="#377DFF"/>
<path fill-rule="evenodd" clip-rule="evenodd" d="M11.2929 7.05014C10.5118 7.83119 10.5118 9.09752 11.2929 9.87857L12 10.5857L14.1213 8.46436C14.5118 8.07383 15.145 8.07383 15.5355 8.46436C15.926 8.85488 15.926 9.48804 15.5355 9.87857L13.4142 11.9999L14.1213 12.707C14.9024 13.488 16.1687 13.488 16.9497 12.707L19.7782 9.87857C20.5592 9.09752 20.5592 7.83119 19.7782 7.05014L16.9497 4.22171C16.1687 3.44067 14.9024 3.44067 14.1213 4.22171L11.2929 7.05014Z" fill="#377DFF"/>
</svg>
