<svg width="24" height="24" viewBox="0 0 24 24" fill="none" xmlns="http://www.w3.org/2000/svg">
<path opacity="0.3" fill-rule="evenodd" clip-rule="evenodd" d="M9.87876 12.7071L7.75744 14.8285C7.36692 15.219 7.36692 15.8522 7.75744 16.2427C8.14796 16.6332 8.78113 16.6332 9.17165 16.2427L11.293 14.1214L12.0001 14.8285C12.7811 15.6095 12.7811 16.8758 12.0001 17.6569L9.17165 20.4853C8.39061 21.2664 7.12428 21.2664 6.34323 20.4853L3.5148 17.6569C2.73375 16.8758 2.73375 15.6095 3.5148 14.8285L6.34323 12C7.12428 11.219 8.39061 11.219 9.17165 12L9.87876 12.7071Z" fill="#377DFF"/>
<path fill-rule="evenodd" clip-rule="evenodd" d="M14.1212 11.2929L16.2425 9.17154C16.6331 8.78101 16.6331 8.14785 16.2425 7.75732C15.852 7.3668 15.2189 7.3668 14.8283 7.75732L12.707 9.87864L11.9999 9.17154C11.2189 8.39049 11.2189 7.12416 11.9999 6.34311L14.8283 3.51468C15.6094 2.73364 16.8757 2.73363 17.6568 3.51468L20.4852 6.34311C21.2662 7.12416 21.2662 8.39049 20.4852 9.17154L17.6568 12C16.8757 12.781 15.6094 12.781 14.8283 12L14.1212 11.2929Z" fill="#377DFF"/>
<path opacity="0.3" fill-rule="evenodd" clip-rule="evenodd" d="M4.22172 5.63585C3.8312 5.24533 3.8312 4.61216 4.22172 4.22164C4.61224 3.83112 5.24541 3.83112 5.63593 4.22164L7.05015 5.63585C7.44067 6.02638 7.44067 6.65954 7.05015 7.05007C6.65962 7.44059 6.02646 7.44059 5.63593 7.05007L4.22172 5.63585ZM8.34304 2.51453C8.34304 1.96225 8.79076 1.51453 9.34304 1.51453C9.89532 1.51453 10.343 1.96225 10.343 2.51453L10.343 4.51453C10.343 5.06682 9.89532 5.51453 9.34304 5.51453C8.79076 5.51453 8.34304 5.06682 8.34304 4.51453L8.34304 2.51453ZM1.68619 9.17139C1.68619 8.6191 2.1339 8.17139 2.68619 8.17139H4.68619C5.23847 8.17139 5.68619 8.6191 5.68619 9.17139C5.68619 9.72367 5.23847 10.1714 4.68619 10.1714L2.68619 10.1714C2.1339 10.1714 1.68619 9.72367 1.68619 9.17139Z" fill="#377DFF"/>
<path opacity="0.3" fill-rule="evenodd" clip-rule="evenodd" d="M18.2426 19.6567C18.6331 20.0472 19.2663 20.0472 19.6568 19.6567C20.0473 19.2662 20.0473 18.633 19.6568 18.2425L18.2426 16.8283C17.852 16.4377 17.2189 16.4377 16.8284 16.8283C16.4378 17.2188 16.4378 17.852 16.8284 18.2425L18.2426 19.6567ZM21.3639 15.5354C21.9162 15.5354 22.3639 15.0877 22.3639 14.5354C22.3639 13.9831 21.9162 13.5354 21.3639 13.5354L19.3639 13.5354C18.8116 13.5354 18.3639 13.9831 18.3639 14.5354C18.3639 15.0877 18.8116 15.5354 19.3639 15.5354L21.3639 15.5354ZM14.707 22.1922C15.2593 22.1922 15.707 21.7445 15.707 21.1922V19.1922C15.707 18.6399 15.2593 18.1922 14.707 18.1922C14.1547 18.1922 13.707 18.6399 13.707 19.1922L13.707 21.1922C13.707 21.7445 14.1547 22.1922 14.707 22.1922Z" fill="#377DFF"/>
</svg>
