<svg width="24" height="24" viewBox="0 0 24 24" fill="none" xmlns="http://www.w3.org/2000/svg">
<path fill-rule="evenodd" clip-rule="evenodd" d="M12.8435 16.0002H11.1566L10.9853 16.6395C10.3353 19.0652 7.84206 20.5047 5.41641 19.8547C2.99077 19.2048 1.55128 16.7115 2.20123 14.2858L3.92093 7.86783C4.57088 5.44218 7.06415 4.00269 9.48979 4.65264C10.5422 4.93465 11.409 5.56365 12.0001 6.38359C12.5911 5.56365 13.4579 4.93465 14.5103 4.65264C16.936 4.00269 19.4292 5.44218 20.0792 7.86783L21.7989 14.2858C22.4488 16.7115 21.0094 19.2048 18.5837 19.8547C16.1581 20.5047 13.6648 19.0652 13.0148 16.6395L12.8435 16.0002ZM17.4564 18.1054C18.9631 18.1054 20.1846 16.838 20.1846 15.2746C20.1846 13.7112 18.9631 12.4438 17.4564 12.4438C15.9497 12.4438 14.7282 13.7112 14.7282 15.2746C14.7282 16.838 15.9497 18.1054 17.4564 18.1054ZM6.54371 18.1054C8.05044 18.1054 9.27189 16.838 9.27189 15.2746C9.27189 13.7112 8.05044 12.4438 6.54371 12.4438C5.03698 12.4438 3.81554 13.7112 3.81554 15.2746C3.81554 16.838 5.03698 18.1054 6.54371 18.1054Z" fill="#377DFF"/>
</svg>
