<svg width="24" height="24" viewBox="0 0 24 24" fill="none" xmlns="http://www.w3.org/2000/svg">
<path d="M11.0859 16.0358L9.67168 14.6216L12.1466 12.1467C12.7323 11.5609 12.7323 10.6111 12.1466 10.0254C11.5608 9.43957 10.611 9.43957 10.0252 10.0254L6.4897 13.5609C5.12287 14.9277 5.12287 17.1438 6.4897 18.5106C7.85654 19.8775 10.0726 19.8775 11.4395 18.5106L18.5105 11.4396C19.8774 10.0727 19.8774 7.85666 18.5105 6.48982L18.157 6.13627C16.9854 4.9647 15.0859 4.9647 13.9143 6.13627L12.5001 4.72206C14.4527 2.76944 17.6186 2.76944 19.5712 4.72206L19.9247 5.07561C22.0726 7.22349 22.0726 10.7059 19.9247 12.8538L12.8537 19.9249C10.7058 22.0727 7.22337 22.0727 5.07549 19.9249C2.92761 17.777 2.92761 14.2946 5.07549 12.1467L8.61102 8.61114C9.97786 7.24431 12.1939 7.24431 13.5608 8.61114C14.9276 9.97798 14.9276 12.1941 13.5608 13.5609L11.0859 16.0358Z" fill="#377DFF"/>
</svg>
