<svg width="24" height="24" viewBox="0 0 24 24" fill="none" xmlns="http://www.w3.org/2000/svg">
<path opacity="0.3" fill-rule="evenodd" clip-rule="evenodd" d="M5.46452 17.1214C5.074 17.5119 5.074 18.1451 5.46452 18.5356C5.85505 18.9261 6.48821 18.9261 6.87874 18.5356L12.0001 13.4143L18.1924 19.6067C18.583 19.9972 19.2161 19.9972 19.6067 19.6067C19.9972 19.2162 19.9972 18.583 19.6067 18.1925L13.4143 12.0001L19.6067 5.80769C19.9972 5.41717 19.9972 4.784 19.6067 4.39348C19.2161 4.00295 18.583 4.00296 18.1924 4.39348L12.0001 10.5859L6.87874 5.46455C6.48821 5.07402 5.85505 5.07402 5.46452 5.46455C5.074 5.85507 5.074 6.48824 5.46452 6.87876L10.5858 12.0001L5.46452 17.1214Z" fill="#377DFF"/>
<path fill-rule="evenodd" clip-rule="evenodd" d="M18 6H15C15 6 14 5.82843 14 5C14 4.17157 15 4 15 4H20V9C20 9 20 10 19 10C18 10 18 9 18 9V6ZM9 18H6V15C6 15 6 14 5 14C4 14 4 15 4 15V20H9C9 20 10 19.8284 10 19C10 18.1716 9 18 9 18ZM18 15V18H15C15 18 14 18 14 19C14 20 15 20 15 20H20V15C20 15 19.8284 14 19 14C18.1716 14 18 15 18 15ZM6 9V6H9C9 6 10 6 10 5C10 4 9 4 9 4H4V9C4 9 4.17157 10 5 10C5.82843 10 6 9 6 9Z" fill="#377DFF"/>
</svg>
