<svg width="24" height="24" viewBox="0 0 24 24" fill="none" xmlns="http://www.w3.org/2000/svg">
<path opacity="0.3" fill-rule="evenodd" clip-rule="evenodd" d="M12 17.9999L16.0844 20.1472C16.279 20.2496 16.502 20.2849 16.7188 20.2477C17.2631 20.1544 17.6287 19.6374 17.5353 19.0931L16.7553 14.545L20.0596 11.3241C20.2171 11.1706 20.3196 10.9695 20.3512 10.7518C20.4306 10.2053 20.0519 9.69783 19.5054 9.61841L14.9389 8.95486L12.8967 4.81693C12.7994 4.61972 12.6398 4.46009 12.4426 4.36276C12.3 4.29242 12.1489 4.25916 12 4.25928V17.9999Z" fill="#377DFF"/>
<path fill-rule="evenodd" clip-rule="evenodd" d="M12 4.25928C11.6316 4.25956 11.2774 4.46421 11.1033 4.81693L9.06111 8.95486L4.49463 9.61841C4.27699 9.65004 4.07585 9.75252 3.92234 9.91001C3.53684 10.3055 3.54493 10.9386 3.94042 11.3241L7.24475 14.545L6.4647 19.0931C6.42753 19.3098 6.46284 19.5328 6.56518 19.7274C6.82218 20.2163 7.42681 20.4042 7.91565 20.1472L12 17.9999V4.25928Z" fill="#377DFF"/>
</svg>
