<svg width="24" height="24" viewBox="0 0 24 24" fill="none" xmlns="http://www.w3.org/2000/svg">
<path fill-rule="evenodd" clip-rule="evenodd" d="M20 9H15V4C15 4 15 3 14 3C13 3 13 4 13 4V11H20C20 11 21 10.8284 21 10C21 9.17157 20 9 20 9ZM5 14H10V19C10 19 10 20 11 20C12 20 12 19 12 19V12H5C5 12 4 12.1716 4 13C4 13.8284 5 14 5 14Z" fill="#377DFF"/>
<path opacity="0.3" fill-rule="evenodd" clip-rule="evenodd" d="M16.8786 5.70726C16.4881 6.09778 16.4881 6.73095 16.8786 7.12147C17.2691 7.512 17.9023 7.512 18.2928 7.12147L21.1212 4.29304C21.5118 3.90252 21.5118 3.26935 21.1212 2.87883C20.7307 2.48831 20.0975 2.48831 19.707 2.87883L16.8786 5.70726ZM3.87859 18.7073C3.48806 19.0978 3.48806 19.7309 3.87859 20.1215C4.26911 20.512 4.90228 20.512 5.2928 20.1215L8.12123 17.293C8.51175 16.9025 8.51175 16.2694 8.12123 15.8788C7.7307 15.4883 7.09754 15.4883 6.70701 15.8788L3.87859 18.7073Z" fill="#377DFF"/>
</svg>
