<svg width="24" height="24" viewBox="0 0 24 24" fill="none" xmlns="http://www.w3.org/2000/svg">
<path opacity="0.3" fill-rule="evenodd" clip-rule="evenodd" d="M7.70703 11.6465L4.15667 9.753C3.96174 9.64904 3.888 9.40674 3.99196 9.21182C4.08368 9.03986 4.28597 8.95902 4.47094 9.02043L9.57212 10.714L7.70703 11.6465ZM12.7324 14.3267L16.3687 12.9704L18.6317 13.7217L18.63 13.7226C20.0086 14.1925 21.0001 15.4985 21.0001 17.0361C21.0001 18.9691 19.4331 20.5361 17.5001 20.5361C15.5671 20.5361 14.0001 18.9691 14.0001 17.0361C14.0001 16.388 14.1762 15.7811 14.4833 15.2605L12.7324 14.3267ZM16.0001 17.0361C16.0001 16.2077 16.6716 15.5361 17.5001 15.5361C18.3285 15.5361 19.0001 16.2077 19.0001 17.0361C19.0001 17.8646 18.3285 18.5361 17.5001 18.5361C16.6716 18.5361 16.0001 17.8646 16.0001 17.0361Z" fill="#377DFF"/>
<path fill-rule="evenodd" clip-rule="evenodd" d="M14.4833 9.27562C14.1763 8.75507 14.0001 8.14811 14.0001 7.5C14.0001 5.567 15.5671 4 17.5001 4C19.4331 4 21.0001 5.567 21.0001 7.5C21.0001 9.03761 20.0086 10.3436 18.6301 10.8136L18.6318 10.8145L4.47098 15.5157C4.00597 15.6701 3.72439 15.0137 4.15672 14.7831L14.4833 9.27562ZM17.5001 9C18.3285 9 19.0001 8.32843 19.0001 7.5C19.0001 6.67157 18.3285 6 17.5001 6C16.6717 6 16.0001 6.67157 16.0001 7.5C16.0001 8.32843 16.6717 9 17.5001 9Z" fill="#377DFF"/>
</svg>
