<svg width="24" height="24" viewBox="0 0 24 24" fill="none" xmlns="http://www.w3.org/2000/svg">
<path opacity="0.3" fill-rule="evenodd" clip-rule="evenodd" d="M4 3.99982L11.6314 2.56892C11.875 2.52325 12.125 2.52325 12.3686 2.56892L20 3.99982V11.9031C20 15.6958 18.0462 19.221 14.83 21.2311L12.53 22.6686C12.2057 22.8712 11.7943 22.8712 11.47 22.6686L9.17001 21.2311C5.95382 19.221 4 15.6958 4 11.9031L4 3.99982Z" fill="#377DFF"/>
<path fill-rule="evenodd" clip-rule="evenodd" d="M10.5858 12.0002L9.17156 10.586C8.78103 10.1955 8.78103 9.56232 9.17156 9.1718C9.56208 8.78128 10.1952 8.78128 10.5858 9.1718L12 10.586L13.4142 9.1718C13.8047 8.78128 14.4379 8.78128 14.8284 9.1718C15.2189 9.56232 15.2189 10.1955 14.8284 10.586L13.4142 12.0002L14.8284 13.4144C15.2189 13.805 15.2189 14.4381 14.8284 14.8287C14.4379 15.2192 13.8047 15.2192 13.4142 14.8287L12 13.4144L10.5858 14.8287C10.1952 15.2192 9.56208 15.2192 9.17156 14.8287C8.78103 14.4381 8.78103 13.805 9.17156 13.4144L10.5858 12.0002Z" fill="#377DFF"/>
</svg>
