<svg width="24" height="24" viewBox="0 0 24 24" fill="none" xmlns="http://www.w3.org/2000/svg">
<path opacity="0.3" fill-rule="evenodd" clip-rule="evenodd" d="M4 3.99982L11.6314 2.56892C11.875 2.52325 12.125 2.52325 12.3686 2.56892L20 3.99982V11.9031C20 15.6958 18.0462 19.221 14.83 21.2311L12.53 22.6686C12.2057 22.8712 11.7943 22.8712 11.47 22.6686L9.17001 21.2311C5.95382 19.221 4 15.6958 4 11.9031L4 3.99982Z" fill="#377DFF"/>
<path fill-rule="evenodd" clip-rule="evenodd" d="M11.175 14.75C10.9355 14.75 10.6959 14.6542 10.5042 14.4625L8.58755 12.5458C8.20422 12.1625 8.20422 11.5875 8.58755 11.2042C8.97088 10.8208 9.5938 10.8208 9.92922 11.2042L11.175 12.45L14.3375 9.2875C14.7209 8.90417 15.2959 8.90417 15.6792 9.2875C16.0625 9.67083 16.0625 10.2458 15.6792 10.6292L11.8459 14.4625C11.6542 14.6542 11.4146 14.75 11.175 14.75Z" fill="#377DFF"/>
</svg>
